:FULLY-SPECIFIED
:FORCE-ALL-JOINTS-BE-3DOF
:DEGREES
2650
root -1.46845 15.2933 -28.6417 165.449 -72.9242 -169.282
lfemur -51.8853 24.8253 -10.7258
ltibia 61.4539 -0 0
lfoot 7.20963 10.0602 0.000246126
ltoes -22.8128 0 0
rfemur -35.0775 -16.889 24.0293
rtibia 67.952 -0 0
rfoot -23.3525 -5.72954 0.0320398
rtoes -5.91608 0 0
lowerback 18.9129 4.38517 -0.352114
upperback -0.145994 5.74708 0.731235
thorax -10.8685 2.71993 -0.582632
lowerneck -2.49714 9.4279 -0.446039
upperneck 4.68823 12.5495 0.917766
head 1.79844 6.26749 0.637835
lclavicle -2.98177e-16 -9.54166e-15 0
lhumerus 64.7302 -34.5273 40.8916
lradius 108.73 -0 0
lwrist -27.5602 0 0
lhand -37.4955 28.1881 0.00122363
lfingers 7.12502 -0 0
lthumb -10.5524 57.8996 0.00197645
rclavicle -2.98177e-16 -9.54166e-15 0
rhumerus -0.102568 74.5378 -75.7591
rradius 101.394 -0 0
rwrist -35.1836 0 0
rhand 0.53442 -31.6512 -0.00624948
rfingers 7.12502 -0 0
rthumb 26.1022 -59.8767 -0.00591905
2651
root -1.59592 15.2871 -28.6114 165.935 -72.1916 -169.904
lfemur -51.18 25.2565 -10.3066
ltibia 60.5103 -0 0
lfoot 7.8275 10.0614 0.000339304
ltoes -21.0704 0 0
rfemur -34.7624 -16.9562 23.7095
rtibia 68.2174 -0 0
rfoot -23.5738 -6.15256 0.0441668
rtoes -6.13437 0 0
lowerback 18.7575 4.46578 -0.184512
upperback -0.199316 5.89482 0.726877
thorax -10.8164 2.78305 -0.707037
lowerneck -2.49926 9.48816 -0.261709
upperneck 4.87312 12.622 0.872926
head 1.87717 6.30535 0.606448
lclavicle -2.98177e-16 -9.54166e-15 0
lhumerus 60.1152 -33.8953 44.348
lradius 108.716 -0 0
lwrist -27.3812 0 0
lhand -37.7012 28.1708 0.00168665
lfingers 7.12502 -0 0
lthumb -10.7508 57.8705 0.00272434
rclavicle -2.98177e-16 -9.54166e-15 0
rhumerus -4.52626 73.8749 -78.9583
rradius 102.247 -0 0
rwrist -37.912 0 0
rhand 0.496559 -31.1689 -0.0086149
rfingers 7.12502 -0 0
rthumb 26.0659 -59.3997 -0.0081594
2652
root -1.7251 15.2801 -28.5806 166.422 -71.3807 -170.54
lfemur -50.3939 25.7273 -9.8349
ltibia 59.4679 -0 0
lfoot 8.50998 10.0627 0.000427638
ltoes -19.1458 0 0
rfemur -34.4138 -17.0284 23.3557
rtibia 68.5105 -0 0
rfoot -23.8184 -6.61986 0.0556621
rtoes -6.37549 0 0
lowerback 18.5861 4.55534 0.000382495
upperback -0.258244 6.05799 0.7219
thorax -10.759 2.85291 -0.844392
lowerneck -2.50137 9.55473 -0.0580669
upperneck 5.07733 12.7021 0.823662
head 1.96412 6.34722 0.571837
lclavicle -2.98177e-16 -9.54166e-15 0
lhumerus 55.1269 -32.9352 48.047
lradius 108.7 -0 0
lwrist -27.1836 0 0
lhand -37.9284 28.1515 0.0021255
lfingers 7.12502 -0 0
lthumb -10.9699 57.8383 0.00343318
rclavicle -2.98177e-16 -9.54166e-15 0
rhumerus -9.05111 73.0699 -82.1281
rradius 103.189 -0 0
rwrist -40.9258 0 0
rhand 0.454718 -30.6361 -0.0108571
rfingers 7.12502 -0 0
rthumb 26.0258 -58.8728 -0.010283
2653
root -1.85492 15.2726 -28.5496 166.894 -70.5057 -171.174
lfemur -49.539 26.2277 -9.31687
ltibia 58.3454 -0 0
lfoot 9.24497 10.0641 0.000505629
ltoes -17.0732 0 0
rfemur -34.0377 -17.1038 22.974
rtibia 68.8261 -0 0
rfoot -24.0819 -7.12315 0.0658103
rtoes -6.63516 0 0
lowerback 18.4018 4.65241 0.199224
upperback -0.321742 6.23371 0.71635
thorax -10.6974 2.92829 -0.992244
lowerneck -2.50338 9.62643 0.161281
upperneck 5.29724 12.7886 0.770918
head 2.05774 6.39237 0.534632
lclavicle -2.98177e-16 -9.54166e-15 0
lhumerus 49.9149 -31.6097 51.8553
lradius 108.684 -0 0
lwrist -26.9708 0 0
lhand -38.1732 28.1308 0.00251287
lfingers 7.12502 -0 0
lthumb -11.2059 57.8036 0.00405887
rclavicle -2.98177e-16 -9.54166e-15 0
rhumerus -13.5236 72.1295 -85.1381
rradius 104.204 -0 0
rwrist -44.1713 0 0
rhand 0.409636 -30.0623 -0.0128366
rfingers 7.12502 -0 0
rthumb 25.9827 -58.3053 -0.0121578
2654
root -1.98428 15.2646 -28.5186 167.341 -69.5808 -171.792
lfemur -48.6277 26.7479 -8.75895
ltibia 57.1612 -0 0
lfoot 10.0203 10.0655 0.000568626
ltoes -14.8866 0 0
rfemur -33.6403 -17.1808 22.5706
rtibia 69.1591 -0 0
rfoot -24.3599 -7.65415 0.0740068
rtoes -6.90909 0 0
lowerback 18.2078 4.7555 0.408681
upperback -0.38877 6.41908 0.710281
thorax -10.6326 3.00799 -1.14814
lowerneck -2.5052 9.70208 0.39273
upperneck 5.52922 12.8801 0.715627
head 2.15648 6.44007 0.495459
lclavicle -2.98177e-16 -9.54166e-15 0
lhumerus 44.6247 -29.9063 55.6427
lradius 108.666 -0 0
lwrist -26.7462 0 0
lhand -38.4313 28.109 0.0028257
lfingers 7.12502 -0 0
lthumb -11.4548 57.767 0.00456417
rclavicle -2.98177e-16 -9.54166e-15 0
rhumerus -17.8295 71.0676 -87.8969
rradius 105.275 -0 0
rwrist -47.5952 0 0
rhand 0.362059 -29.457 -0.0144354
rfingers 7.12502 -0 0
rthumb 25.9371 -57.7067 -0.0136721
2655
root -2.11208 15.2563 -28.488 167.756 -68.6206 -172.385
lfemur -47.6728 27.2786 -8.16823
ltibia 55.9338 -0 0
lfoot 10.824 10.067 0.000613018
ltoes -12.6204 0 0
rfemur -33.2275 -17.2578 22.1518
rtibia 69.5043 -0 0
rfoot -24.6482 -8.20453 0.0797823
rtoes -7.19301 0 0
lowerback 18.007 4.86309 0.625437
upperback -0.458288 6.6112 0.703757
thorax -10.5657 3.09078 -1.30964
lowerneck -2.50676 9.78049 0.632669
upperneck 5.76967 12.9752 0.658699
head 2.2588 6.48958 0.454942
lclavicle -2.98177e-16 -9.54166e-15 0
lhumerus 39.3862 -27.8387 59.2935
lradius 108.648 -0 0
lwrist -26.5135 0 0
lhand -38.6989 28.0864 0.00304612
lfingers 7.12502 -0 0
lthumb -11.7128 57.7291 0.00492019
rclavicle -2.98177e-16 -9.54166e-15 0
rhumerus -21.8928 69.9042 -90.3514
rradius 106.385 -0 0
rwrist -51.144 0 0
rhand 0.312733 -28.8296 -0.0155619
rfingers 7.12502 -0 0
rthumb 25.8899 -57.0862 -0.014739
2656
root -2.23724 15.2477 -28.4579 168.135 -67.6397 -172.946
lfemur -46.6877 27.8108 -7.55249
ltibia 54.6818 -0 0
lfoot 11.6438 10.0686 0.000636372
ltoes -10.3086 0 0
rfemur -32.8058 -17.3333 21.7237
rtibia 69.8563 -0 0
rfoot -24.9423 -8.76601 0.0828205
rtoes -7.48264 0 0
lowerback 17.8026 4.97363 0.846194
upperback -0.529255 6.80717 0.696858
thorax -10.4976 3.17543 -1.4743
lowerneck -2.508 9.86049 0.877487
upperneck 6.01493 13.0724 0.601028
head 2.36315 6.54015 0.413698
lclavicle -2.98177e-16 -9.54166e-15 0
lhumerus 34.3065 -25.4448 62.7152
lradius 108.63 -0 0
lwrist -26.2761 0 0
lhand -38.9719 28.0633 0.00316207
lfingers 7.12502 -0 0
lthumb -11.976 57.6904 0.00510747
rclavicle -2.98177e-16 -9.54166e-15 0
rhumerus -25.6695 68.6631 -92.4809
rradius 107.517 -0 0
rwrist -54.764 0 0
rhand 0.262405 -28.1897 -0.0161546
rfingers 7.12502 -0 0
rthumb 25.8417 -56.4533 -0.0153003
2657
root -2.35866 15.2391 -28.4287 168.476 -66.6526 -173.47
lfemur -45.6863 28.336 -6.92029
ltibia 53.4236 -0 0
lfoot 12.4676 10.0701 0.000637524
ltoes -7.98539 0 0
rfemur -32.3811 -17.4062 21.2929
rtibia 70.2101 -0 0
rfoot -25.2378 -9.33026 0.0829703
rtoes -7.7737 0 0
lowerback 17.5976 5.0855 1.06768
upperback -0.600626 7.0041 0.689676
thorax -10.4295 3.26069 -1.63968
lowerneck -2.5089 9.94088 1.12357
upperneck 6.26141 13.1703 0.54348
head 2.46798 6.59105 0.37234
lclavicle -2.98177e-16 -9.54166e-15 0
lhumerus 29.4662 -22.7825 65.842
lradius 108.611 -0 0
lwrist -26.0375 0 0
lhand -39.2462 28.0401 0.00316778
lfingers 7.12502 -0 0
lthumb -12.2405 57.6516 0.00511671
rclavicle -2.98177e-16 -9.54166e-15 0
rhumerus -29.1394 67.3705 -94.2885
rradius 108.654 -0 0
rwrist -58.4019 0 0
rhand 0.211826 -27.5465 -0.0161838
rfingers 7.12502 -0 0
rthumb 25.7932 -55.8172 -0.015328
2658
root -2.47526 15.2306 -28.4007 168.779 -65.6741 -173.955
lfemur -44.6834 28.8464 -6.28097
ltibia 52.1777 -0 0
lfoot 13.2833 10.0717 0.000616619
ltoes -5.68497 0 0
rfemur -31.96 -17.4754 20.8655
rtibia 70.5605 -0 0
rfoot -25.5305 -9.88897 0.0802508
rtoes -8.0619 0 0
lowerback 17.395 5.19705 1.28663
upperback -0.671351 7.19909 0.682317
thorax -10.3623 3.3453 -1.80336
lowerneck -2.50945 10.0205 1.3673
upperneck 6.50546 13.2675 0.486901
head 2.57176 6.64153 0.331476
lclavicle -2.98177e-16 -9.54166e-15 0
lhumerus 24.9216 -19.924 68.6345
lradius 108.593 -0 0
lwrist -25.8013 0 0
lhand -39.5178 28.0171 0.003064
lfingers 7.12502 -0 0
lthumb -12.5024 57.6131 0.00494907
rclavicle -2.98177e-16 -9.54166e-15 0
rhumerus -32.2977 66.0541 -95.7933
rradius 109.781 -0 0
rwrist -62.0041 0 0
rhand 0.161745 -26.9097 -0.0156533
rfingers 7.12502 -0 0
rthumb 25.7453 -55.1874 -0.0148256
2659
root -2.58593 15.2222 -28.374 169.046 -64.7189 -174.4
lfemur -43.6943 29.3345 -5.64466
ltibia 50.9626 -0 0
lfoot 14.0789 10.0732 0.000575108
ltoes -3.4415 0 0
rfemur -31.5485 -17.5399 20.448
rtibia 70.9021 -0 0
rfoot -25.8158 -10.4338 0.0748502
rtoes -8.34297 0 0
lowerback 17.1978 5.30658 1.49982
upperback -0.740379 7.38925 0.674904
thorax -10.297 3.42801 -1.9629
lowerneck -2.50965 10.0981 1.60505
upperneck 6.74347 13.3625 0.43211
head 2.67295 6.69082 0.291708
lclavicle -2.98177e-16 -9.54166e-15 0
lhumerus 20.7091 -16.9509 71.0762
lradius 108.575 -0 0
lwrist -25.5709 0 0
lhand -39.7827 27.9947 0.00285789
lfingers 7.12502 -0 0
lthumb -12.7578 57.5756 0.00461616
rclavicle -2.98177e-16 -9.54166e-15 0
rhumerus -35.1482 64.7417 -97.0234
rradius 110.879 -0 0
rwrist -65.5172 0 0
rhand 0.112913 -26.2887 -0.0145999
rfingers 7.12502 -0 0
rthumb 25.6985 -54.5732 -0.0138279
